<?xml version="1.0" encoding="UTF-8"?>
<svg id="Layer_1" data-name="Layer 1" xmlns="http://www.w3.org/2000/svg" xmlns:xlink="http://www.w3.org/1999/xlink" viewBox="0 0 450 54">
  <defs>
    <style>
      .cls-1 {
        fill: #410f46;
      }

      .cls-2 {
        fill: url(#radial-gradient);
      }

      .cls-3 {
        fill: url(#radial-gradient-3);
      }

      .cls-4 {
        fill: url(#radial-gradient-2);
      }

      .cls-5 {
        fill: url(#radial-gradient-4);
      }

      .cls-6 {
        fill: url(#linear-gradient);
      }
    </style>
    <linearGradient id="linear-gradient" x1="61.23" y1="32.42" x2="321.05" y2="32.42" gradientUnits="userSpaceOnUse">
      <stop offset="0" stop-color="#faad19"/>
      <stop offset=".24" stop-color="#f37934"/>
      <stop offset=".48" stop-color="#ed4f4a"/>
      <stop offset=".69" stop-color="#e9315a"/>
      <stop offset=".87" stop-color="#e61f64"/>
      <stop offset="1" stop-color="#e61968"/>
    </linearGradient>
    <radialGradient id="radial-gradient" cx="341.27" cy="-50.24" fx="341.27" fy="-50.24" r="11.93" gradientTransform="translate(-1375.13 204.33) scale(4.08 3.84)" gradientUnits="userSpaceOnUse">
      <stop offset="0" stop-color="#faad19"/>
      <stop offset=".17" stop-color="#f37934"/>
      <stop offset=".34" stop-color="#ed4f4a"/>
      <stop offset=".48" stop-color="#e9315a"/>
      <stop offset=".61" stop-color="#e61f64"/>
      <stop offset=".7" stop-color="#e61968"/>
    </radialGradient>
    <radialGradient id="radial-gradient-2" cx="344.59" cy="-45.72" fx="344.59" fy="-45.72" r="6.77" xlink:href="#radial-gradient"/>
    <radialGradient id="radial-gradient-3" cx="344.34" cy="-47.79" fx="344.34" fy="-47.79" r="5.24" gradientTransform="translate(-1375.13 204.33) scale(4.08 3.84)" gradientUnits="userSpaceOnUse">
      <stop offset=".3" stop-color="#e61968"/>
      <stop offset=".39" stop-color="#e61f64"/>
      <stop offset=".52" stop-color="#e9315a"/>
      <stop offset=".66" stop-color="#ed4f4a"/>
      <stop offset=".83" stop-color="#f37934"/>
      <stop offset="1" stop-color="#faad19"/>
    </radialGradient>
    <radialGradient id="radial-gradient-4" cx="348.69" cy="-47.2" fx="348.69" fy="-47.2" r="10.36" gradientTransform="translate(-1375.13 204.33) scale(4.08 3.84)" gradientUnits="userSpaceOnUse">
      <stop offset="0" stop-color="#410f46"/>
      <stop offset=".04" stop-color="#500f49"/>
      <stop offset=".21" stop-color="#851354"/>
      <stop offset=".36" stop-color="#af155c"/>
      <stop offset=".5" stop-color="#cd1762"/>
      <stop offset=".62" stop-color="#df1866"/>
      <stop offset=".7" stop-color="#e61968"/>
    </radialGradient>
  </defs>
  <path class="cls-6" d="M61.23,32.37c0-7.26,5.86-12.53,13.86-12.53s13.86,5.27,13.86,12.53-5.86,12.53-13.86,12.53-13.86-5.27-13.86-12.53ZM80.6,32.37c0-3.73-2.46-5.99-5.51-5.99s-5.51,2.26-5.51,5.99,2.46,5.99,5.51,5.99,5.51-2.26,5.51-5.99ZM120.9,44.35l-.07-10.92-5.33,8.76h-3.65l-5.33-8.39v10.54h-7.54v-23.96h6.81l8,12.77,7.79-12.77h6.81l.07,23.96h-7.54ZM156.19,40.17h-9.33l-1.65,4.18h-8.42l10.74-23.96h8.14l10.74,23.96h-8.56l-1.65-4.18ZM153.91,34.35l-2.39-6.02-2.39,6.02h4.77ZM174.75,20.39h8.28v23.96h-8.28v-23.96ZM218.25,20.39v23.96h-6.81l-9.33-10.89v10.89h-8.07v-23.96h6.81l9.33,10.89v-10.89h8.07ZM255.62,44.45l-.07-10.92-5.33,8.76h-3.65l-5.33-8.39v10.54h-7.54v-23.96h6.81l8,12.77,7.79-12.77h6.81l.07,23.96h-7.54ZM287.41,40.28h-9.33l-1.65,4.18h-8.42l10.74-23.96h8.14l10.74,23.96h-8.56l-1.65-4.18ZM285.13,34.46l-2.39-6.02-2.39,6.02h4.77ZM315.12,45c7.61,0,11.44-3.7,11.44-8.08,0-8.83-13.58-6.44-13.58-9.31,0-.82.77-1.51,3.19-1.51,2.14,0,4.42.58,6.84,1.78l2.49-5.85c-2.56-1.4-5.96-2.09-9.26-2.09-7.61,0-11.44,3.63-11.44,8.08,0,8.94,13.58,6.5,13.58,9.52,0,.82-.84,1.3-3.19,1.3-2.7,0-5.79-.86-8.1-2.19l-2.67,5.89c2.46,1.47,6.6,2.46,10.7,2.46ZM341.01,44.45h8.28v-17.7h7.19v-6.27h-22.66v6.27h7.19v17.7ZM373.77,38.36v-3.15h10.39v-5.82h-10.39v-2.81h11.82v-6.09h-19.96v23.96h20.42v-6.09h-12.28ZM406.78,38.43h-2.25v6.02h-8.28v-23.96h11.82c6.84,0,11.19,3.49,11.19,9.04,0,3.46-1.68,6.06-4.63,7.53l5.16,7.39h-8.84l-4.17-6.02ZM407.55,26.72h-3.02v5.61h3.02c2.28,0,3.37-1.06,3.37-2.81s-1.09-2.81-3.37-2.81ZM438.56,45c7.61,0,11.44-3.7,11.44-8.08,0-8.83-13.58-6.44-13.58-9.31,0-.82.77-1.51,3.19-1.51,2.14,0,4.42.58,6.84,1.78l2.49-5.85c-2.56-1.4-5.96-2.09-9.26-2.09-7.61,0-11.44,3.63-11.44,8.08,0,8.94,13.58,6.5,13.58,9.52,0,.82-.84,1.3-3.19,1.3-2.7,0-5.79-.86-8.1-2.19l-2.67,5.89c2.46,1.47,6.6,2.46,10.7,2.46Z"/>
  <path class="cls-1" d="M43.05,27c0,11.18-9.64,20.25-21.52,20.25S0,38.18,0,27,9.64,6.75,21.52,6.75s21.52,9.07,21.52,20.25Z"/>
  <path class="cls-2" d="M25.3,0c-4.35,0-8.46.93-12.15,2.56-1.86.87-3.14,2.66-3.14,4.74v23.99c0,3.9,3.36,7.06,7.51,7.06s7.5-3.16,7.5-7.06v-13.89c.01-1.47,1.28-2.67,2.85-2.67.35,0,.68.06.98.16h0c5.67,2.02,9.7,7.17,9.7,13.21,0,1.79-.22,3.97-.65,6.26-2.5,8.31-10.61,14.41-20.25,14.41-7.38,0-13.87-3.58-17.63-8.99,4.85,8.46,14.35,14.22,25.28,14.22,15.85,0,28.7-12.09,28.7-27S41.15,0,25.3,0Z"/>
  <path class="cls-4" d="M17.51,38.35c4.14,0,7.5-3.16,7.5-7.06v-13.89c.01-1.47,1.28-2.67,2.85-2.67.35,0,.68.06.98.16h0c.6.21,1.17.47,1.73.75-1.99-1.05-4.29-1.65-6.74-1.65-7.64,0-13.83,5.83-13.83,13.01v4.28c0,3.9,3.36,7.06,7.51,7.06Z"/>
  <path class="cls-3" d="M25.3,0c-4.35,0-8.46.93-12.15,2.56-1.86.87-3.14,2.66-3.14,4.74v20.55c0-12.42,10.7-22.49,23.9-22.49,4.55,0,8.8,1.19,12.42,3.27C41.08,3.32,33.61,0,25.3,0Z"/>
  <path class="cls-5" d="M31.47,16.13c4.24,2.5,7.07,6.92,7.07,11.97,0,1.79-.22,3.97-.65,6.26-2.5,8.31-10.61,14.41-20.25,14.41-7.38,0-13.87-3.58-17.63-8.99,4.85,8.46,14.35,14.22,25.28,14.22,3.56,0,6.96-.61,10.11-1.73,4.87-4.12,7.93-10.08,7.93-16.72,0-8.29-4.77-15.52-11.87-19.42Z"/>
</svg>